<mxfile host="Electron" modified="2024-03-22T15:01:00.742Z" agent="Mozilla/5.0 (Windows NT 10.0; Win64; x64) AppleWebKit/537.36 (KHTML, like Gecko) draw.io/23.1.5 Chrome/120.0.6099.109 Electron/28.1.0 Safari/537.36" etag="pgLS1Jbbg1liz8MvHB94" version="23.1.5" type="device">
  <diagram name="Pagina-1" id="Wh0ucBkxRm3K5NCNh3Ew">
    <mxGraphModel dx="864" dy="516" grid="1" gridSize="10" guides="1" tooltips="1" connect="1" arrows="1" fold="1" page="1" pageScale="1" pageWidth="827" pageHeight="1169" math="0" shadow="0">
      <root>
        <mxCell id="0" />
        <mxCell id="1" parent="0" />
        <mxCell id="9gbZTxLX2Z0H48wy4UDL-32" style="edgeStyle=orthogonalEdgeStyle;rounded=0;orthogonalLoop=1;jettySize=auto;html=1;entryX=0;entryY=0.5;entryDx=0;entryDy=0;endArrow=doubleBlock;endFill=1;" parent="1" source="9gbZTxLX2Z0H48wy4UDL-1" target="9gbZTxLX2Z0H48wy4UDL-31" edge="1">
          <mxGeometry relative="1" as="geometry" />
        </mxCell>
        <mxCell id="9gbZTxLX2Z0H48wy4UDL-39" style="edgeStyle=orthogonalEdgeStyle;rounded=0;orthogonalLoop=1;jettySize=auto;html=1;entryX=1;entryY=0.5;entryDx=0;entryDy=0;endArrow=doubleBlock;endFill=1;" parent="1" source="9gbZTxLX2Z0H48wy4UDL-1" target="9gbZTxLX2Z0H48wy4UDL-36" edge="1">
          <mxGeometry relative="1" as="geometry" />
        </mxCell>
        <mxCell id="9gbZTxLX2Z0H48wy4UDL-47" style="edgeStyle=orthogonalEdgeStyle;rounded=0;orthogonalLoop=1;jettySize=auto;html=1;entryX=0;entryY=0.5;entryDx=0;entryDy=0;" parent="1" source="9gbZTxLX2Z0H48wy4UDL-1" target="9gbZTxLX2Z0H48wy4UDL-4" edge="1">
          <mxGeometry relative="1" as="geometry" />
        </mxCell>
        <mxCell id="9gbZTxLX2Z0H48wy4UDL-48" style="edgeStyle=orthogonalEdgeStyle;rounded=0;orthogonalLoop=1;jettySize=auto;html=1;entryX=0;entryY=0.5;entryDx=0;entryDy=0;" parent="1" source="9gbZTxLX2Z0H48wy4UDL-1" target="9gbZTxLX2Z0H48wy4UDL-6" edge="1">
          <mxGeometry relative="1" as="geometry" />
        </mxCell>
        <mxCell id="9gbZTxLX2Z0H48wy4UDL-49" style="edgeStyle=orthogonalEdgeStyle;rounded=0;orthogonalLoop=1;jettySize=auto;html=1;entryX=0;entryY=0.5;entryDx=0;entryDy=0;" parent="1" source="9gbZTxLX2Z0H48wy4UDL-1" target="9gbZTxLX2Z0H48wy4UDL-7" edge="1">
          <mxGeometry relative="1" as="geometry" />
        </mxCell>
        <mxCell id="9gbZTxLX2Z0H48wy4UDL-50" style="edgeStyle=orthogonalEdgeStyle;rounded=0;orthogonalLoop=1;jettySize=auto;html=1;entryX=0;entryY=0.5;entryDx=0;entryDy=0;" parent="1" source="9gbZTxLX2Z0H48wy4UDL-1" target="9gbZTxLX2Z0H48wy4UDL-8" edge="1">
          <mxGeometry relative="1" as="geometry" />
        </mxCell>
        <mxCell id="9gbZTxLX2Z0H48wy4UDL-51" style="edgeStyle=orthogonalEdgeStyle;rounded=0;orthogonalLoop=1;jettySize=auto;html=1;entryX=0;entryY=0.5;entryDx=0;entryDy=0;" parent="1" source="9gbZTxLX2Z0H48wy4UDL-1" target="9gbZTxLX2Z0H48wy4UDL-21" edge="1">
          <mxGeometry relative="1" as="geometry" />
        </mxCell>
        <mxCell id="9gbZTxLX2Z0H48wy4UDL-52" style="edgeStyle=orthogonalEdgeStyle;rounded=0;orthogonalLoop=1;jettySize=auto;html=1;entryX=0;entryY=0.5;entryDx=0;entryDy=0;" parent="1" source="9gbZTxLX2Z0H48wy4UDL-1" target="9gbZTxLX2Z0H48wy4UDL-25" edge="1">
          <mxGeometry relative="1" as="geometry" />
        </mxCell>
        <mxCell id="9gbZTxLX2Z0H48wy4UDL-1" value="EVENTI" style="rounded=0;whiteSpace=wrap;html=1;fillColor=#60a917;strokeColor=#2D7600;fontColor=#ffffff;" parent="1" vertex="1">
          <mxGeometry x="350" y="205" width="160" height="60" as="geometry" />
        </mxCell>
        <mxCell id="9gbZTxLX2Z0H48wy4UDL-38" style="edgeStyle=orthogonalEdgeStyle;rounded=0;orthogonalLoop=1;jettySize=auto;html=1;entryX=0;entryY=0.5;entryDx=0;entryDy=0;endArrow=doubleBlock;endFill=1;" parent="1" source="9gbZTxLX2Z0H48wy4UDL-2" target="9gbZTxLX2Z0H48wy4UDL-36" edge="1">
          <mxGeometry relative="1" as="geometry" />
        </mxCell>
        <mxCell id="9gbZTxLX2Z0H48wy4UDL-45" style="edgeStyle=orthogonalEdgeStyle;rounded=0;orthogonalLoop=1;jettySize=auto;html=1;entryX=0;entryY=0.5;entryDx=0;entryDy=0;" parent="1" source="9gbZTxLX2Z0H48wy4UDL-2" target="9gbZTxLX2Z0H48wy4UDL-9" edge="1">
          <mxGeometry relative="1" as="geometry" />
        </mxCell>
        <mxCell id="9gbZTxLX2Z0H48wy4UDL-66" style="edgeStyle=orthogonalEdgeStyle;rounded=0;orthogonalLoop=1;jettySize=auto;html=1;entryX=0;entryY=0.5;entryDx=0;entryDy=0;" parent="1" source="9gbZTxLX2Z0H48wy4UDL-2" target="9gbZTxLX2Z0H48wy4UDL-62" edge="1">
          <mxGeometry relative="1" as="geometry" />
        </mxCell>
        <mxCell id="9gbZTxLX2Z0H48wy4UDL-67" style="edgeStyle=orthogonalEdgeStyle;rounded=0;orthogonalLoop=1;jettySize=auto;html=1;entryX=0;entryY=0.5;entryDx=0;entryDy=0;" parent="1" source="9gbZTxLX2Z0H48wy4UDL-2" target="9gbZTxLX2Z0H48wy4UDL-64" edge="1">
          <mxGeometry relative="1" as="geometry" />
        </mxCell>
        <mxCell id="9gbZTxLX2Z0H48wy4UDL-2" value="PARTECIPANTI" style="rounded=0;whiteSpace=wrap;html=1;fillColor=#e3c800;fontColor=#000000;strokeColor=#B09500;" parent="1" vertex="1">
          <mxGeometry y="205" width="150" height="60" as="geometry" />
        </mxCell>
        <mxCell id="9gbZTxLX2Z0H48wy4UDL-33" style="edgeStyle=orthogonalEdgeStyle;rounded=0;orthogonalLoop=1;jettySize=auto;html=1;entryX=1;entryY=0.5;entryDx=0;entryDy=0;endArrow=classic;endFill=1;" parent="1" source="9gbZTxLX2Z0H48wy4UDL-3" target="9gbZTxLX2Z0H48wy4UDL-31" edge="1">
          <mxGeometry relative="1" as="geometry" />
        </mxCell>
        <mxCell id="9gbZTxLX2Z0H48wy4UDL-53" style="edgeStyle=orthogonalEdgeStyle;rounded=0;orthogonalLoop=1;jettySize=auto;html=1;entryX=0;entryY=0.5;entryDx=0;entryDy=0;" parent="1" source="9gbZTxLX2Z0H48wy4UDL-3" target="9gbZTxLX2Z0H48wy4UDL-13" edge="1">
          <mxGeometry relative="1" as="geometry" />
        </mxCell>
        <mxCell id="9gbZTxLX2Z0H48wy4UDL-54" style="edgeStyle=orthogonalEdgeStyle;rounded=0;orthogonalLoop=1;jettySize=auto;html=1;entryX=0;entryY=0.5;entryDx=0;entryDy=0;" parent="1" source="9gbZTxLX2Z0H48wy4UDL-3" target="9gbZTxLX2Z0H48wy4UDL-14" edge="1">
          <mxGeometry relative="1" as="geometry" />
        </mxCell>
        <mxCell id="9gbZTxLX2Z0H48wy4UDL-55" style="edgeStyle=orthogonalEdgeStyle;rounded=0;orthogonalLoop=1;jettySize=auto;html=1;entryX=0;entryY=0.5;entryDx=0;entryDy=0;" parent="1" source="9gbZTxLX2Z0H48wy4UDL-3" target="9gbZTxLX2Z0H48wy4UDL-15" edge="1">
          <mxGeometry relative="1" as="geometry" />
        </mxCell>
        <mxCell id="9gbZTxLX2Z0H48wy4UDL-56" style="edgeStyle=orthogonalEdgeStyle;rounded=0;orthogonalLoop=1;jettySize=auto;html=1;entryX=0;entryY=0.5;entryDx=0;entryDy=0;" parent="1" source="9gbZTxLX2Z0H48wy4UDL-3" target="9gbZTxLX2Z0H48wy4UDL-16" edge="1">
          <mxGeometry relative="1" as="geometry" />
        </mxCell>
        <mxCell id="9gbZTxLX2Z0H48wy4UDL-3" value="RISORSE" style="rounded=0;whiteSpace=wrap;html=1;fillColor=#dae8fc;strokeColor=#6c8ebf;" parent="1" vertex="1">
          <mxGeometry x="740" y="205" width="150" height="60" as="geometry" />
        </mxCell>
        <mxCell id="9gbZTxLX2Z0H48wy4UDL-4" value="" style="ellipse;whiteSpace=wrap;html=1;aspect=fixed;" parent="1" vertex="1">
          <mxGeometry x="470" y="280" width="20" height="20" as="geometry" />
        </mxCell>
        <mxCell id="9gbZTxLX2Z0H48wy4UDL-6" value="" style="ellipse;whiteSpace=wrap;html=1;aspect=fixed;" parent="1" vertex="1">
          <mxGeometry x="470" y="310" width="20" height="20" as="geometry" />
        </mxCell>
        <mxCell id="9gbZTxLX2Z0H48wy4UDL-7" value="" style="ellipse;whiteSpace=wrap;html=1;aspect=fixed;" parent="1" vertex="1">
          <mxGeometry x="470" y="340" width="20" height="20" as="geometry" />
        </mxCell>
        <mxCell id="9gbZTxLX2Z0H48wy4UDL-8" value="" style="ellipse;whiteSpace=wrap;html=1;aspect=fixed;" parent="1" vertex="1">
          <mxGeometry x="470" y="370" width="20" height="20" as="geometry" />
        </mxCell>
        <mxCell id="9gbZTxLX2Z0H48wy4UDL-9" value="" style="ellipse;whiteSpace=wrap;html=1;aspect=fixed;" parent="1" vertex="1">
          <mxGeometry x="120" y="275" width="20" height="20" as="geometry" />
        </mxCell>
        <mxCell id="9gbZTxLX2Z0H48wy4UDL-13" value="" style="ellipse;whiteSpace=wrap;html=1;aspect=fixed;" parent="1" vertex="1">
          <mxGeometry x="850" y="280" width="20" height="20" as="geometry" />
        </mxCell>
        <mxCell id="9gbZTxLX2Z0H48wy4UDL-14" value="" style="ellipse;whiteSpace=wrap;html=1;aspect=fixed;" parent="1" vertex="1">
          <mxGeometry x="850" y="310" width="20" height="20" as="geometry" />
        </mxCell>
        <mxCell id="9gbZTxLX2Z0H48wy4UDL-15" value="" style="ellipse;whiteSpace=wrap;html=1;aspect=fixed;" parent="1" vertex="1">
          <mxGeometry x="850" y="340" width="20" height="20" as="geometry" />
        </mxCell>
        <mxCell id="9gbZTxLX2Z0H48wy4UDL-16" value="" style="ellipse;whiteSpace=wrap;html=1;aspect=fixed;" parent="1" vertex="1">
          <mxGeometry x="850" y="370" width="20" height="20" as="geometry" />
        </mxCell>
        <mxCell id="9gbZTxLX2Z0H48wy4UDL-17" value="Nome" style="text;html=1;align=left;verticalAlign=middle;resizable=0;points=[];autosize=1;strokeColor=none;fillColor=none;" parent="1" vertex="1">
          <mxGeometry x="490" y="275" width="60" height="30" as="geometry" />
        </mxCell>
        <mxCell id="9gbZTxLX2Z0H48wy4UDL-18" value="Descrizione" style="text;html=1;align=left;verticalAlign=middle;resizable=0;points=[];autosize=1;strokeColor=none;fillColor=none;" parent="1" vertex="1">
          <mxGeometry x="490" y="305" width="90" height="30" as="geometry" />
        </mxCell>
        <mxCell id="9gbZTxLX2Z0H48wy4UDL-19" value="Data" style="text;html=1;align=left;verticalAlign=middle;resizable=0;points=[];autosize=1;strokeColor=none;fillColor=none;" parent="1" vertex="1">
          <mxGeometry x="490" y="335" width="50" height="30" as="geometry" />
        </mxCell>
        <mxCell id="9gbZTxLX2Z0H48wy4UDL-20" value="Luogo" style="text;html=1;align=left;verticalAlign=middle;resizable=0;points=[];autosize=1;strokeColor=none;fillColor=none;" parent="1" vertex="1">
          <mxGeometry x="490" y="365" width="60" height="30" as="geometry" />
        </mxCell>
        <mxCell id="9gbZTxLX2Z0H48wy4UDL-21" value="" style="ellipse;whiteSpace=wrap;html=1;aspect=fixed;" parent="1" vertex="1">
          <mxGeometry x="470" y="400" width="20" height="20" as="geometry" />
        </mxCell>
        <mxCell id="9gbZTxLX2Z0H48wy4UDL-22" value="CapMax" style="text;html=1;align=left;verticalAlign=middle;resizable=0;points=[];autosize=1;strokeColor=none;fillColor=none;" parent="1" vertex="1">
          <mxGeometry x="490" y="395" width="70" height="30" as="geometry" />
        </mxCell>
        <mxCell id="9gbZTxLX2Z0H48wy4UDL-23" value="Nome" style="text;html=1;align=left;verticalAlign=middle;resizable=0;points=[];autosize=1;strokeColor=none;fillColor=none;" parent="1" vertex="1">
          <mxGeometry x="140" y="270" width="60" height="30" as="geometry" />
        </mxCell>
        <mxCell id="9gbZTxLX2Z0H48wy4UDL-25" value="" style="ellipse;whiteSpace=wrap;html=1;aspect=fixed;strokeColor=#000000;fillColor=#000000;" parent="1" vertex="1">
          <mxGeometry x="470" y="430" width="20" height="20" as="geometry" />
        </mxCell>
        <mxCell id="9gbZTxLX2Z0H48wy4UDL-26" value="CodiceEvento" style="text;html=1;align=left;verticalAlign=middle;resizable=0;points=[];autosize=1;strokeColor=none;fillColor=none;" parent="1" vertex="1">
          <mxGeometry x="490" y="425" width="100" height="30" as="geometry" />
        </mxCell>
        <mxCell id="9gbZTxLX2Z0H48wy4UDL-27" value="Tipologia" style="text;html=1;align=left;verticalAlign=middle;resizable=0;points=[];autosize=1;strokeColor=none;fillColor=none;" parent="1" vertex="1">
          <mxGeometry x="870" y="275" width="70" height="30" as="geometry" />
        </mxCell>
        <mxCell id="9gbZTxLX2Z0H48wy4UDL-28" value="Quantità" style="text;html=1;align=left;verticalAlign=middle;resizable=0;points=[];autosize=1;strokeColor=none;fillColor=none;" parent="1" vertex="1">
          <mxGeometry x="870" y="305" width="70" height="30" as="geometry" />
        </mxCell>
        <mxCell id="9gbZTxLX2Z0H48wy4UDL-29" value="Costo" style="text;html=1;align=left;verticalAlign=middle;resizable=0;points=[];autosize=1;strokeColor=none;fillColor=none;" parent="1" vertex="1">
          <mxGeometry x="870" y="335" width="50" height="30" as="geometry" />
        </mxCell>
        <mxCell id="9gbZTxLX2Z0H48wy4UDL-30" value="Fornitore" style="text;html=1;align=left;verticalAlign=middle;resizable=0;points=[];autosize=1;strokeColor=none;fillColor=none;" parent="1" vertex="1">
          <mxGeometry x="870" y="365" width="70" height="30" as="geometry" />
        </mxCell>
        <mxCell id="9gbZTxLX2Z0H48wy4UDL-31" value="UTILIZZA" style="rhombus;whiteSpace=wrap;html=1;" parent="1" vertex="1">
          <mxGeometry x="590" y="195" width="80" height="80" as="geometry" />
        </mxCell>
        <mxCell id="9gbZTxLX2Z0H48wy4UDL-34" value="" style="endArrow=none;html=1;rounded=0;" parent="1" edge="1">
          <mxGeometry width="50" height="50" relative="1" as="geometry">
            <mxPoint x="534.5" y="265" as="sourcePoint" />
            <mxPoint x="534.5" y="205" as="targetPoint" />
          </mxGeometry>
        </mxCell>
        <mxCell id="9gbZTxLX2Z0H48wy4UDL-36" value="PARTECIPA" style="rhombus;whiteSpace=wrap;html=1;" parent="1" vertex="1">
          <mxGeometry x="220" y="200" width="80" height="70" as="geometry" />
        </mxCell>
        <mxCell id="9gbZTxLX2Z0H48wy4UDL-59" value="" style="endArrow=none;html=1;rounded=0;" parent="1" edge="1">
          <mxGeometry width="50" height="50" relative="1" as="geometry">
            <mxPoint x="330" y="270" as="sourcePoint" />
            <mxPoint x="330" y="200" as="targetPoint" />
          </mxGeometry>
        </mxCell>
        <mxCell id="9gbZTxLX2Z0H48wy4UDL-62" value="" style="ellipse;whiteSpace=wrap;html=1;aspect=fixed;" parent="1" vertex="1">
          <mxGeometry x="120" y="305" width="20" height="20" as="geometry" />
        </mxCell>
        <mxCell id="9gbZTxLX2Z0H48wy4UDL-63" value="Cognome" style="text;html=1;align=left;verticalAlign=middle;resizable=0;points=[];autosize=1;strokeColor=none;fillColor=none;" parent="1" vertex="1">
          <mxGeometry x="140" y="300" width="80" height="30" as="geometry" />
        </mxCell>
        <mxCell id="9gbZTxLX2Z0H48wy4UDL-64" value="" style="ellipse;whiteSpace=wrap;html=1;aspect=fixed;fillColor=#000000;" parent="1" vertex="1">
          <mxGeometry x="120" y="340" width="20" height="20" as="geometry" />
        </mxCell>
        <mxCell id="9gbZTxLX2Z0H48wy4UDL-65" value="CodFis" style="text;html=1;align=left;verticalAlign=middle;resizable=0;points=[];autosize=1;strokeColor=none;fillColor=none;" parent="1" vertex="1">
          <mxGeometry x="140" y="335" width="60" height="30" as="geometry" />
        </mxCell>
      </root>
    </mxGraphModel>
  </diagram>
</mxfile>
